<svg width="333" height="283" viewBox="0 0 333 283" fill="none" xmlns="http://www.w3.org/2000/svg">
<rect x="0.75" y="0.75" width="331.5" height="281.5" rx="12.75" fill="#292C34"/>
<rect x="0.75" y="0.75" width="331.5" height="281.5" rx="12.75" stroke="#878EA1" stroke-width="1.5"/>
<rect x="13.5" y="13.5" width="306" height="156" rx="8" fill="#878EA1"/>
<path d="M21.612 208.532C20.972 208.532 20.652 208.361 20.652 208.02V199.396H18.108C17.788 199.396 17.628 199.129 17.628 198.596V198.1C17.628 197.567 17.788 197.3 18.108 197.3H25.676C25.996 197.3 26.156 197.567 26.156 198.1V198.596C26.156 199.129 25.996 199.396 25.676 199.396H23.132V208.02C23.132 208.361 22.812 208.532 22.172 208.532H21.612ZM27.8728 208.532C27.2328 208.532 26.9128 208.361 26.9128 208.02V200.612C26.9128 200.271 27.2328 200.1 27.8728 200.1H28.3207C28.9608 200.1 29.2808 200.271 29.2808 200.612V208.02C29.2808 208.361 28.9608 208.532 28.3207 208.532H27.8728ZM28.0968 199.316C27.6808 199.316 27.3768 199.273 27.1848 199.188C27.0034 199.103 26.9128 198.975 26.9128 198.804V197.556C26.9128 197.385 27.0034 197.257 27.1848 197.172C27.3768 197.087 27.6808 197.044 28.0968 197.044C28.5128 197.044 28.8114 197.087 28.9928 197.172C29.1848 197.257 29.2808 197.385 29.2808 197.556V198.804C29.2808 198.975 29.1848 199.103 28.9928 199.188C28.8114 199.273 28.5128 199.316 28.0968 199.316ZM33.7711 208.628C33.3978 208.628 33.0618 208.58 32.7631 208.484C32.4751 208.377 32.2298 208.217 32.0271 208.004C31.8351 207.791 31.6858 207.524 31.5791 207.204C31.4831 206.873 31.4351 206.484 31.4351 206.036V202.004H31.1791C30.8591 202.004 30.6991 201.737 30.6991 201.204V200.932C30.6991 200.399 30.8591 200.132 31.1791 200.132H31.4351L31.6431 198.612C31.6965 198.271 31.9845 198.1 32.5071 198.1H33.0031C33.5365 198.1 33.8031 198.271 33.8031 198.612V200.132H34.5871C34.9071 200.132 35.0671 200.399 35.0671 200.932V201.204C35.0671 201.737 34.9071 202.004 34.5871 202.004H33.8031V206.068C33.8031 206.303 33.8458 206.479 33.9311 206.596C34.0271 206.703 34.1765 206.756 34.3791 206.756C34.4538 206.756 34.5338 206.745 34.6191 206.724C34.7045 206.703 34.7685 206.692 34.8111 206.692C34.9178 206.692 35.0085 206.783 35.0831 206.964C35.1578 207.135 35.2111 207.316 35.2431 207.508C35.2858 207.689 35.3071 207.801 35.3071 207.844C35.3071 208.089 35.2111 208.271 35.0191 208.388C34.8378 208.495 34.6245 208.559 34.3791 208.58C34.1445 208.612 33.9418 208.628 33.7711 208.628ZM39.0159 208.628C38.6425 208.628 38.3065 208.58 38.0079 208.484C37.7199 208.377 37.4745 208.217 37.2719 208.004C37.0799 207.791 36.9305 207.524 36.8239 207.204C36.7279 206.873 36.6799 206.484 36.6799 206.036V196.948C36.6799 196.607 36.9999 196.436 37.6399 196.436H38.0879C38.7279 196.436 39.0479 196.607 39.0479 196.948V206.068C39.0479 206.303 39.0905 206.479 39.1759 206.596C39.2719 206.703 39.4212 206.756 39.6239 206.756C39.6985 206.756 39.7785 206.745 39.8639 206.724C39.9492 206.703 40.0132 206.692 40.0559 206.692C40.1625 206.692 40.2532 206.783 40.3279 206.964C40.4025 207.135 40.4559 207.316 40.4879 207.508C40.5305 207.689 40.5519 207.801 40.5519 207.844C40.5519 208.089 40.4559 208.271 40.2639 208.388C40.0825 208.495 39.8692 208.559 39.6239 208.58C39.3892 208.612 39.1865 208.628 39.0159 208.628ZM44.7386 208.628C43.288 208.628 42.2266 208.244 41.5546 207.476C40.8933 206.697 40.5626 205.663 40.5626 204.372C40.5626 203.316 40.728 202.468 41.0586 201.828C41.3893 201.188 41.848 200.724 42.4346 200.436C43.0213 200.148 43.6933 200.004 44.4506 200.004C45.2933 200.004 45.9653 200.196 46.4666 200.58C46.968 200.953 47.3306 201.455 47.5546 202.084C47.7893 202.703 47.9066 203.385 47.9066 204.132C47.9066 204.217 47.8533 204.34 47.7466 204.5C47.64 204.649 47.5226 204.783 47.3946 204.9C47.2666 205.017 47.1653 205.076 47.0906 205.076H43.0106C43.064 205.716 43.2506 206.159 43.5706 206.404C43.9013 206.639 44.328 206.756 44.8506 206.756C45.192 206.756 45.4906 206.713 45.7466 206.628C46.0133 206.543 46.232 206.463 46.4026 206.388C46.584 206.303 46.712 206.26 46.7866 206.26C46.904 206.26 47.0266 206.34 47.1546 206.5C47.2826 206.66 47.3893 206.836 47.4746 207.028C47.5706 207.22 47.6186 207.369 47.6186 207.476C47.6186 207.679 47.512 207.855 47.2986 208.004C47.096 208.143 46.8346 208.26 46.5146 208.356C46.2053 208.452 45.8853 208.521 45.5546 208.564C45.2346 208.607 44.9626 208.628 44.7386 208.628ZM43.0106 203.492H45.6026C45.6026 203.023 45.512 202.639 45.3306 202.34C45.1493 202.031 44.856 201.876 44.4506 201.876C44.12 201.876 43.8213 201.993 43.5546 202.228C43.288 202.452 43.1066 202.873 43.0106 203.492Z" fill="#E2E4E9"/>
<path d="M18.69 235.5V226.162H19.698V234.52H24.472V235.5H18.69ZM28.8181 235.71C27.7261 235.71 26.9141 235.388 26.3821 234.744C25.8595 234.091 25.5981 233.185 25.5981 232.028C25.5981 230.815 25.8735 229.905 26.4241 229.298C26.9841 228.691 27.7728 228.388 28.7901 228.388C29.5461 228.388 30.1621 228.542 30.6381 228.85C31.1141 229.149 31.4641 229.573 31.6881 230.124C31.9121 230.665 32.0241 231.3 32.0241 232.028C32.0241 233.176 31.7441 234.077 31.1841 234.73C30.6335 235.383 29.8448 235.71 28.8181 235.71ZM28.8041 234.786C29.3735 234.786 29.8168 234.665 30.1341 234.422C30.4515 234.17 30.6755 233.839 30.8061 233.428C30.9461 233.008 31.0161 232.541 31.0161 232.028C31.0161 231.477 30.9461 231.001 30.8061 230.6C30.6661 230.189 30.4328 229.872 30.1061 229.648C29.7888 229.424 29.3548 229.312 28.8041 229.312C28.2441 229.312 27.8055 229.433 27.4881 229.676C27.1708 229.919 26.9421 230.245 26.8021 230.656C26.6715 231.057 26.6061 231.515 26.6061 232.028C26.6061 232.849 26.7695 233.517 27.0961 234.03C27.4228 234.534 27.9921 234.786 28.8041 234.786ZM33.9188 235.5V229.074C34.0308 229.027 34.2455 228.948 34.5628 228.836C34.8895 228.724 35.2768 228.621 35.7248 228.528C36.1822 228.435 36.6535 228.388 37.1388 228.388C37.2135 228.388 37.2882 228.397 37.3628 228.416C37.4375 228.435 37.5122 228.453 37.5868 228.472V229.368C37.3442 229.34 37.1062 229.326 36.8728 229.326C36.6488 229.326 36.4295 229.34 36.2148 229.368C36.0002 229.387 35.7855 229.415 35.5708 229.452C35.3562 229.489 35.1415 229.527 34.9268 229.564V235.5H33.9188ZM41.588 235.71C40.9253 235.71 40.3513 235.575 39.866 235.304C39.3807 235.024 39.0073 234.609 38.746 234.058C38.4847 233.507 38.354 232.821 38.354 232C38.354 230.796 38.6247 229.895 39.166 229.298C39.7167 228.691 40.468 228.388 41.42 228.388C42.1667 228.388 42.764 228.556 43.212 228.892C43.6693 229.228 43.996 229.681 44.192 230.25C44.388 230.819 44.4813 231.463 44.472 232.182H38.858L38.928 231.258H43.814L43.422 231.398C43.394 230.698 43.2167 230.175 42.89 229.83C42.5727 229.485 42.0827 229.312 41.42 229.312C40.9627 229.312 40.58 229.396 40.272 229.564C39.9733 229.732 39.7493 230.026 39.6 230.446C39.4507 230.857 39.376 231.435 39.376 232.182C39.376 233.031 39.572 233.68 39.964 234.128C40.3653 234.567 40.9253 234.786 41.644 234.786C41.9893 234.786 42.3067 234.763 42.596 234.716C42.8853 234.66 43.1513 234.585 43.394 234.492C43.6367 234.399 43.8513 234.296 44.038 234.184V235.22C43.702 235.379 43.3287 235.5 42.918 235.584C42.5167 235.668 42.0733 235.71 41.588 235.71ZM52.0862 230.95V235.5H51.0782V230.95C51.0782 230.782 51.0549 230.605 51.0082 230.418C50.9709 230.231 50.8916 230.054 50.7702 229.886C50.6489 229.709 50.4622 229.569 50.2102 229.466C49.9582 229.354 49.6222 229.298 49.2022 229.298C48.9129 229.298 48.6142 229.321 48.3062 229.368C47.9982 229.415 47.6856 229.485 47.3682 229.578V235.5H46.3602V229.074C46.5842 228.962 46.8129 228.864 47.0462 228.78C47.2889 228.687 47.5316 228.612 47.7742 228.556C48.0262 228.5 48.2782 228.458 48.5302 228.43C48.7916 228.402 49.0529 228.388 49.3142 228.388C49.9956 228.388 50.5369 228.491 50.9382 228.696C51.3396 228.892 51.6289 229.181 51.8062 229.564C51.9929 229.947 52.0862 230.409 52.0862 230.95ZM50.7562 229.354C51.0642 229.121 51.3769 228.934 51.6942 228.794C52.0116 228.654 52.3382 228.551 52.6742 228.486C53.0196 228.421 53.3649 228.388 53.7102 228.388C54.3916 228.388 54.9329 228.491 55.3342 228.696C55.7356 228.892 56.0249 229.181 56.2022 229.564C56.3889 229.947 56.4822 230.409 56.4822 230.95V235.5H55.4742V230.95C55.4742 230.782 55.4509 230.605 55.4042 230.418C55.3669 230.231 55.2876 230.054 55.1662 229.886C55.0449 229.709 54.8582 229.569 54.6062 229.466C54.3542 229.354 54.0182 229.298 53.5982 229.298C53.3089 229.298 53.0102 229.34 52.7022 229.424C52.3942 229.508 52.0816 229.653 51.7642 229.858L50.7562 229.354ZM62.8362 235.5V228.514H63.8442V235.5H62.8362ZM62.7802 227.268V226.162H63.9002V227.268H62.7802ZM68.8874 235.696C68.6821 235.696 68.4488 235.668 68.1874 235.612C67.9354 235.556 67.6881 235.486 67.4454 235.402C67.2028 235.318 66.9881 235.229 66.8014 235.136L67.1514 234.786V238.538H66.1434V229.774C66.1434 229.485 66.2321 229.251 66.4094 229.074C66.5961 228.897 66.8341 228.761 67.1234 228.668C67.4128 228.565 67.7208 228.495 68.0474 228.458C68.3741 228.411 68.6821 228.388 68.9714 228.388C69.5314 228.388 70.0588 228.505 70.5534 228.738C71.0481 228.971 71.4494 229.368 71.7574 229.928C72.0654 230.479 72.2194 231.23 72.2194 232.182C72.2194 232.901 72.0888 233.526 71.8274 234.058C71.5754 234.581 71.2021 234.987 70.7074 235.276C70.2128 235.556 69.6061 235.696 68.8874 235.696ZM68.8874 234.772C69.4008 234.772 69.8208 234.665 70.1474 234.45C70.4834 234.226 70.7354 233.918 70.9034 233.526C71.0714 233.134 71.1554 232.686 71.1554 232.182C71.1554 231.678 71.0994 231.207 70.9874 230.768C70.8754 230.329 70.6608 229.979 70.3434 229.718C70.0261 229.447 69.5641 229.312 68.9574 229.312C68.4721 229.312 68.0474 229.368 67.6834 229.48C67.3288 229.592 67.1514 229.751 67.1514 229.956V234.282C67.4408 234.45 67.7301 234.576 68.0194 234.66C68.3088 234.735 68.5981 234.772 68.8874 234.772ZM76.0881 235.71C75.5841 235.71 75.1595 235.659 74.8141 235.556C74.4781 235.453 74.1281 235.309 73.7641 235.122V234.058C74.0535 234.217 74.3101 234.352 74.5341 234.464C74.7581 234.576 74.9868 234.66 75.2201 234.716C75.4535 234.763 75.7195 234.786 76.0181 234.786C76.4848 234.786 76.8628 234.683 77.1521 234.478C77.4508 234.273 77.6001 234.007 77.6001 233.68C77.6001 233.419 77.5255 233.218 77.3761 233.078C77.2361 232.938 77.0541 232.821 76.8301 232.728C76.6061 232.635 76.3728 232.537 76.1301 232.434C75.8595 232.359 75.5841 232.28 75.3041 232.196C75.0335 232.103 74.7815 231.986 74.5481 231.846C74.3241 231.697 74.1421 231.51 74.0021 231.286C73.8621 231.053 73.7921 230.754 73.7921 230.39C73.7921 230.035 73.8621 229.732 74.0021 229.48C74.1515 229.228 74.3428 229.023 74.5761 228.864C74.8095 228.696 75.0708 228.575 75.3601 228.5C75.6495 228.425 75.9388 228.388 76.2281 228.388C76.6481 228.388 77.0075 228.444 77.3061 228.556C77.6048 228.668 77.9128 228.794 78.2301 228.934V229.942C77.8755 229.755 77.5581 229.606 77.2781 229.494C76.9981 229.373 76.6668 229.312 76.2841 229.312C75.9015 229.312 75.5561 229.391 75.2481 229.55C74.9495 229.699 74.8001 229.933 74.8001 230.25C74.8001 230.511 74.8748 230.721 75.0241 230.88C75.1828 231.029 75.3881 231.151 75.6401 231.244C75.8921 231.328 76.1628 231.412 76.4521 231.496C76.6855 231.571 76.9281 231.655 77.1801 231.748C77.4321 231.832 77.6655 231.949 77.8801 232.098C78.0948 232.238 78.2675 232.425 78.3981 232.658C78.5381 232.891 78.6081 233.19 78.6081 233.554C78.6081 234.049 78.4821 234.459 78.2301 234.786C77.9781 235.103 77.6561 235.337 77.2641 235.486C76.8815 235.635 76.4895 235.71 76.0881 235.71ZM83.4249 235.71C82.8089 235.71 82.2816 235.603 81.8429 235.388C81.4042 235.173 81.0682 234.861 80.8349 234.45C80.6109 234.039 80.4989 233.535 80.4989 232.938V228.514H81.5069V232.714C81.5069 233.423 81.6609 233.946 81.9689 234.282C82.2862 234.609 82.7716 234.772 83.4249 234.772C84.0782 234.772 84.5589 234.609 84.8669 234.282C85.1842 233.946 85.3429 233.423 85.3429 232.714V228.514H86.3509V232.938C86.3509 233.825 86.0942 234.511 85.5809 234.996C85.0769 235.472 84.3582 235.71 83.4249 235.71ZM94.3187 230.95V235.5H93.3107V230.95C93.3107 230.782 93.2873 230.605 93.2407 230.418C93.2033 230.231 93.124 230.054 93.0027 229.886C92.8813 229.709 92.6947 229.569 92.4427 229.466C92.1907 229.354 91.8547 229.298 91.4347 229.298C91.1453 229.298 90.8467 229.321 90.5387 229.368C90.2307 229.415 89.918 229.485 89.6007 229.578V235.5H88.5927V229.074C88.8167 228.962 89.0453 228.864 89.2787 228.78C89.5213 228.687 89.764 228.612 90.0067 228.556C90.2587 228.5 90.5107 228.458 90.7627 228.43C91.024 228.402 91.2853 228.388 91.5467 228.388C92.228 228.388 92.7693 228.491 93.1707 228.696C93.572 228.892 93.8613 229.181 94.0387 229.564C94.2253 229.947 94.3187 230.409 94.3187 230.95ZM92.9887 229.354C93.2967 229.121 93.6093 228.934 93.9267 228.794C94.244 228.654 94.5707 228.551 94.9067 228.486C95.252 228.421 95.5973 228.388 95.9427 228.388C96.624 228.388 97.1653 228.491 97.5667 228.696C97.968 228.892 98.2573 229.181 98.4347 229.564C98.6213 229.947 98.7147 230.409 98.7147 230.95V235.5H97.7067V230.95C97.7067 230.782 97.6833 230.605 97.6367 230.418C97.5993 230.231 97.52 230.054 97.3987 229.886C97.2773 229.709 97.0907 229.569 96.8387 229.466C96.5867 229.354 96.2507 229.298 95.8307 229.298C95.5413 229.298 95.2427 229.34 94.9347 229.424C94.6267 229.508 94.314 229.653 93.9967 229.858L92.9887 229.354ZM107.911 235.71C107.575 235.71 107.22 235.659 106.847 235.556C106.473 235.463 106.119 235.285 105.783 235.024C105.456 234.753 105.185 234.371 104.971 233.876C104.765 233.372 104.663 232.719 104.663 231.916C104.663 230.833 104.924 229.979 105.447 229.354C105.979 228.719 106.781 228.402 107.855 228.402C108.06 228.402 108.303 228.43 108.583 228.486C108.863 228.542 109.138 228.612 109.409 228.696C109.679 228.78 109.903 228.869 110.081 228.962L109.731 229.312V225.56H110.739V234.296C110.739 234.557 110.645 234.781 110.459 234.968C110.281 235.145 110.048 235.29 109.759 235.402C109.469 235.505 109.161 235.579 108.835 235.626C108.508 235.682 108.2 235.71 107.911 235.71ZM107.925 234.786C108.41 234.786 108.83 234.73 109.185 234.618C109.549 234.506 109.731 234.366 109.731 234.198V229.816C109.441 229.648 109.129 229.527 108.793 229.452C108.466 229.368 108.153 229.326 107.855 229.326C107.351 229.326 106.94 229.438 106.623 229.662C106.315 229.877 106.086 230.18 105.937 230.572C105.797 230.955 105.727 231.403 105.727 231.916C105.727 232.42 105.783 232.891 105.895 233.33C106.007 233.759 106.221 234.109 106.539 234.38C106.856 234.651 107.318 234.786 107.925 234.786ZM115.853 235.71C114.761 235.71 113.949 235.388 113.417 234.744C112.895 234.091 112.633 233.185 112.633 232.028C112.633 230.815 112.909 229.905 113.459 229.298C114.019 228.691 114.808 228.388 115.825 228.388C116.581 228.388 117.197 228.542 117.673 228.85C118.149 229.149 118.499 229.573 118.723 230.124C118.947 230.665 119.059 231.3 119.059 232.028C119.059 233.176 118.779 234.077 118.219 234.73C117.669 235.383 116.88 235.71 115.853 235.71ZM115.839 234.786C116.409 234.786 116.852 234.665 117.169 234.422C117.487 234.17 117.711 233.839 117.841 233.428C117.981 233.008 118.051 232.541 118.051 232.028C118.051 231.477 117.981 231.001 117.841 230.6C117.701 230.189 117.468 229.872 117.141 229.648C116.824 229.424 116.39 229.312 115.839 229.312C115.279 229.312 114.841 229.433 114.523 229.676C114.206 229.919 113.977 230.245 113.837 230.656C113.707 231.057 113.641 231.515 113.641 232.028C113.641 232.849 113.805 233.517 114.131 234.03C114.458 234.534 115.027 234.786 115.839 234.786ZM121.962 235.5H120.954V225.854H121.962V235.5ZM127.078 235.71C125.986 235.71 125.174 235.388 124.642 234.744C124.119 234.091 123.858 233.185 123.858 232.028C123.858 230.815 124.133 229.905 124.684 229.298C125.244 228.691 126.033 228.388 127.05 228.388C127.806 228.388 128.422 228.542 128.898 228.85C129.374 229.149 129.724 229.573 129.948 230.124C130.172 230.665 130.284 231.3 130.284 232.028C130.284 233.176 130.004 234.077 129.444 234.73C128.893 235.383 128.105 235.71 127.078 235.71ZM127.064 234.786C127.633 234.786 128.077 234.665 128.394 234.422C128.711 234.17 128.935 233.839 129.066 233.428C129.206 233.008 129.276 232.541 129.276 232.028C129.276 231.477 129.206 231.001 129.066 230.6C128.926 230.189 128.693 229.872 128.366 229.648C128.049 229.424 127.615 229.312 127.064 229.312C126.504 229.312 126.065 229.433 125.748 229.676C125.431 229.919 125.202 230.245 125.062 230.656C124.931 231.057 124.866 231.515 124.866 232.028C124.866 232.849 125.029 233.517 125.356 234.03C125.683 234.534 126.252 234.786 127.064 234.786ZM132.179 235.5V229.074C132.291 229.027 132.505 228.948 132.823 228.836C133.149 228.724 133.537 228.621 133.985 228.528C134.442 228.435 134.913 228.388 135.399 228.388C135.473 228.388 135.548 228.397 135.623 228.416C135.697 228.435 135.772 228.453 135.847 228.472V229.368C135.604 229.34 135.366 229.326 135.133 229.326C134.909 229.326 134.689 229.34 134.475 229.368C134.26 229.387 134.045 229.415 133.831 229.452C133.616 229.489 133.401 229.527 133.187 229.564V235.5H132.179ZM143.49 235.71C142.986 235.71 142.562 235.659 142.216 235.556C141.88 235.453 141.53 235.309 141.166 235.122V234.058C141.456 234.217 141.712 234.352 141.936 234.464C142.16 234.576 142.389 234.66 142.622 234.716C142.856 234.763 143.122 234.786 143.42 234.786C143.887 234.786 144.265 234.683 144.554 234.478C144.853 234.273 145.002 234.007 145.002 233.68C145.002 233.419 144.928 233.218 144.778 233.078C144.638 232.938 144.456 232.821 144.232 232.728C144.008 232.635 143.775 232.537 143.532 232.434C143.262 232.359 142.986 232.28 142.706 232.196C142.436 232.103 142.184 231.986 141.95 231.846C141.726 231.697 141.544 231.51 141.404 231.286C141.264 231.053 141.194 230.754 141.194 230.39C141.194 230.035 141.264 229.732 141.404 229.48C141.554 229.228 141.745 229.023 141.978 228.864C142.212 228.696 142.473 228.575 142.762 228.5C143.052 228.425 143.341 228.388 143.63 228.388C144.05 228.388 144.41 228.444 144.708 228.556C145.007 228.668 145.315 228.794 145.632 228.934V229.942C145.278 229.755 144.96 229.606 144.68 229.494C144.4 229.373 144.069 229.312 143.686 229.312C143.304 229.312 142.958 229.391 142.65 229.55C142.352 229.699 142.202 229.933 142.202 230.25C142.202 230.511 142.277 230.721 142.426 230.88C142.585 231.029 142.79 231.151 143.042 231.244C143.294 231.328 143.565 231.412 143.854 231.496C144.088 231.571 144.33 231.655 144.582 231.748C144.834 231.832 145.068 231.949 145.282 232.098C145.497 232.238 145.67 232.425 145.8 232.658C145.94 232.891 146.01 233.19 146.01 233.554C146.01 234.049 145.884 234.459 145.632 234.786C145.38 235.103 145.058 235.337 144.666 235.486C144.284 235.635 143.892 235.71 143.49 235.71ZM147.957 235.5V228.514H148.965V235.5H147.957ZM147.901 227.268V226.162H149.021V227.268H147.901ZM153.463 235.612C152.968 235.612 152.553 235.463 152.217 235.164C151.881 234.856 151.713 234.403 151.713 233.806V229.438H150.495V228.514H151.713V226.54H152.721V228.514H154.527V229.438H152.721V233.484C152.721 233.876 152.781 234.17 152.903 234.366C153.024 234.562 153.271 234.66 153.645 234.66C153.813 234.66 153.976 234.646 154.135 234.618C154.293 234.581 154.424 234.539 154.527 234.492V235.444C154.396 235.491 154.228 235.528 154.023 235.556C153.827 235.593 153.64 235.612 153.463 235.612ZM162.819 235.71C162.511 235.71 162.198 235.677 161.881 235.612C161.573 235.547 161.284 235.435 161.013 235.276C160.752 235.117 160.537 234.903 160.369 234.632C160.21 234.352 160.131 234.002 160.131 233.582C160.131 233.003 160.238 232.541 160.453 232.196C160.677 231.841 160.98 231.589 161.363 231.44C161.755 231.281 162.203 231.202 162.707 231.202C163.09 231.202 163.421 231.225 163.701 231.272C163.981 231.319 164.228 231.389 164.443 231.482C164.667 231.566 164.868 231.664 165.045 231.776L165.241 232.7C165.026 232.541 164.714 232.406 164.303 232.294C163.902 232.173 163.458 232.112 162.973 232.112C162.385 232.112 161.932 232.224 161.615 232.448C161.298 232.672 161.139 232.999 161.139 233.428C161.139 233.773 161.232 234.049 161.419 234.254C161.615 234.459 161.858 234.604 162.147 234.688C162.446 234.772 162.749 234.814 163.057 234.814C163.664 234.814 164.121 234.772 164.429 234.688C164.746 234.595 164.905 234.389 164.905 234.072V230.866C164.905 230.325 164.746 229.928 164.429 229.676C164.112 229.424 163.659 229.298 163.071 229.298C162.698 229.298 162.301 229.354 161.881 229.466C161.47 229.569 161.116 229.737 160.817 229.97V228.962C161.106 228.775 161.494 228.635 161.979 228.542C162.464 228.439 162.936 228.388 163.393 228.388C163.701 228.388 163.986 228.421 164.247 228.486C164.508 228.542 164.742 228.631 164.947 228.752C165.152 228.864 165.325 229.013 165.465 229.2C165.614 229.377 165.726 229.587 165.801 229.83C165.885 230.063 165.927 230.329 165.927 230.628V234.016C165.927 234.511 165.778 234.879 165.479 235.122C165.19 235.365 164.807 235.523 164.331 235.598C163.864 235.673 163.36 235.71 162.819 235.71ZM173.889 230.95V235.5H172.881V230.95C172.881 230.782 172.858 230.605 172.811 230.418C172.774 230.231 172.694 230.054 172.573 229.886C172.452 229.709 172.265 229.569 172.013 229.466C171.761 229.354 171.425 229.298 171.005 229.298C170.716 229.298 170.417 229.321 170.109 229.368C169.801 229.415 169.488 229.485 169.171 229.578V235.5H168.163V229.074C168.387 228.962 168.616 228.864 168.849 228.78C169.092 228.687 169.334 228.612 169.577 228.556C169.829 228.5 170.081 228.458 170.333 228.43C170.594 228.402 170.856 228.388 171.117 228.388C171.798 228.388 172.34 228.491 172.741 228.696C173.142 228.892 173.432 229.181 173.609 229.564C173.796 229.947 173.889 230.409 173.889 230.95ZM172.559 229.354C172.867 229.121 173.18 228.934 173.497 228.794C173.814 228.654 174.141 228.551 174.477 228.486C174.822 228.421 175.168 228.388 175.513 228.388C176.194 228.388 176.736 228.491 177.137 228.696C177.538 228.892 177.828 229.181 178.005 229.564C178.192 229.947 178.285 230.409 178.285 230.95V235.5H177.277V230.95C177.277 230.782 177.254 230.605 177.207 230.418C177.17 230.231 177.09 230.054 176.969 229.886C176.848 229.709 176.661 229.569 176.409 229.466C176.157 229.354 175.821 229.298 175.401 229.298C175.112 229.298 174.813 229.34 174.505 229.424C174.197 229.508 173.884 229.653 173.567 229.858L172.559 229.354ZM183.406 235.71C182.744 235.71 182.17 235.575 181.684 235.304C181.199 235.024 180.826 234.609 180.564 234.058C180.303 233.507 180.172 232.821 180.172 232C180.172 230.796 180.443 229.895 180.984 229.298C181.535 228.691 182.286 228.388 183.238 228.388C183.985 228.388 184.582 228.556 185.03 228.892C185.488 229.228 185.814 229.681 186.01 230.25C186.206 230.819 186.3 231.463 186.29 232.182H180.676L180.746 231.258H185.632L185.24 231.398C185.212 230.698 185.035 230.175 184.708 229.83C184.391 229.485 183.901 229.312 183.238 229.312C182.781 229.312 182.398 229.396 182.09 229.564C181.792 229.732 181.568 230.026 181.418 230.446C181.269 230.857 181.194 231.435 181.194 232.182C181.194 233.031 181.39 233.68 181.782 234.128C182.184 234.567 182.744 234.786 183.462 234.786C183.808 234.786 184.125 234.763 184.414 234.716C184.704 234.66 184.97 234.585 185.212 234.492C185.455 234.399 185.67 234.296 185.856 234.184V235.22C185.52 235.379 185.147 235.5 184.736 235.584C184.335 235.668 183.892 235.71 183.406 235.71ZM190.377 235.612C189.882 235.612 189.467 235.463 189.131 235.164C188.795 234.856 188.627 234.403 188.627 233.806V229.438H187.409V228.514H188.627V226.54H189.635V228.514H191.441V229.438H189.635V233.484C189.635 233.876 189.695 234.17 189.817 234.366C189.938 234.562 190.185 234.66 190.559 234.66C190.727 234.66 190.89 234.646 191.049 234.618C191.207 234.581 191.338 234.539 191.441 234.492V235.444C191.31 235.491 191.142 235.528 190.937 235.556C190.741 235.593 190.554 235.612 190.377 235.612ZM200.251 235.612C199.878 235.612 199.495 235.565 199.103 235.472C198.72 235.369 198.366 235.192 198.039 234.94C197.722 234.679 197.465 234.31 197.269 233.834C197.073 233.358 196.975 232.747 196.975 232C196.975 231.253 197.073 230.647 197.269 230.18C197.465 229.704 197.722 229.335 198.039 229.074C198.366 228.813 198.72 228.635 199.103 228.542C199.495 228.439 199.878 228.388 200.251 228.388C200.606 228.388 200.956 228.421 201.301 228.486C201.656 228.551 201.996 228.649 202.323 228.78V229.746C202.015 229.615 201.698 229.517 201.371 229.452C201.044 229.387 200.708 229.354 200.363 229.354C199.532 229.354 198.926 229.564 198.543 229.984C198.17 230.404 197.983 231.076 197.983 232C197.983 232.933 198.17 233.61 198.543 234.03C198.926 234.441 199.532 234.646 200.363 234.646C200.708 234.646 201.044 234.613 201.371 234.548C201.698 234.483 202.015 234.385 202.323 234.254V235.234C201.996 235.355 201.656 235.449 201.301 235.514C200.956 235.579 200.606 235.612 200.251 235.612ZM207.086 235.71C205.994 235.71 205.182 235.388 204.65 234.744C204.127 234.091 203.866 233.185 203.866 232.028C203.866 230.815 204.141 229.905 204.692 229.298C205.252 228.691 206.04 228.388 207.058 228.388C207.814 228.388 208.43 228.542 208.906 228.85C209.382 229.149 209.732 229.573 209.956 230.124C210.18 230.665 210.292 231.3 210.292 232.028C210.292 233.176 210.012 234.077 209.452 234.73C208.901 235.383 208.112 235.71 207.086 235.71ZM207.072 234.786C207.641 234.786 208.084 234.665 208.402 234.422C208.719 234.17 208.943 233.839 209.074 233.428C209.214 233.008 209.284 232.541 209.284 232.028C209.284 231.477 209.214 231.001 209.074 230.6C208.934 230.189 208.7 229.872 208.374 229.648C208.056 229.424 207.622 229.312 207.072 229.312C206.512 229.312 206.073 229.433 205.756 229.676C205.438 229.919 205.21 230.245 205.07 230.656C204.939 231.057 204.874 231.515 204.874 232.028C204.874 232.849 205.037 233.517 205.364 234.03C205.69 234.534 206.26 234.786 207.072 234.786ZM212.186 229.074C212.41 228.962 212.639 228.864 212.872 228.78C213.115 228.687 213.358 228.612 213.6 228.556C213.852 228.5 214.104 228.458 214.356 228.43C214.618 228.402 214.879 228.388 215.14 228.388C215.822 228.388 216.363 228.491 216.764 228.696C217.166 228.892 217.455 229.181 217.632 229.564C217.819 229.947 217.912 230.409 217.912 230.95V235.5H216.904V230.95C216.904 230.782 216.881 230.605 216.834 230.418C216.797 230.231 216.718 230.054 216.596 229.886C216.475 229.709 216.288 229.569 216.036 229.466C215.784 229.354 215.448 229.298 215.028 229.298C214.739 229.298 214.44 229.321 214.132 229.368C213.824 229.415 213.512 229.485 213.194 229.578V235.5H212.186V229.074ZM222.131 235.71C221.627 235.71 221.202 235.659 220.857 235.556C220.521 235.453 220.171 235.309 219.807 235.122V234.058C220.096 234.217 220.353 234.352 220.577 234.464C220.801 234.576 221.03 234.66 221.263 234.716C221.496 234.763 221.762 234.786 222.061 234.786C222.528 234.786 222.906 234.683 223.195 234.478C223.494 234.273 223.643 234.007 223.643 233.68C223.643 233.419 223.568 233.218 223.419 233.078C223.279 232.938 223.097 232.821 222.873 232.728C222.649 232.635 222.416 232.537 222.173 232.434C221.902 232.359 221.627 232.28 221.347 232.196C221.076 232.103 220.824 231.986 220.591 231.846C220.367 231.697 220.185 231.51 220.045 231.286C219.905 231.053 219.835 230.754 219.835 230.39C219.835 230.035 219.905 229.732 220.045 229.48C220.194 229.228 220.386 229.023 220.619 228.864C220.852 228.696 221.114 228.575 221.403 228.5C221.692 228.425 221.982 228.388 222.271 228.388C222.691 228.388 223.05 228.444 223.349 228.556C223.648 228.668 223.956 228.794 224.273 228.934V229.942C223.918 229.755 223.601 229.606 223.321 229.494C223.041 229.373 222.71 229.312 222.327 229.312C221.944 229.312 221.599 229.391 221.291 229.55C220.992 229.699 220.843 229.933 220.843 230.25C220.843 230.511 220.918 230.721 221.067 230.88C221.226 231.029 221.431 231.151 221.683 231.244C221.935 231.328 222.206 231.412 222.495 231.496C222.728 231.571 222.971 231.655 223.223 231.748C223.475 231.832 223.708 231.949 223.923 232.098C224.138 232.238 224.31 232.425 224.441 232.658C224.581 232.891 224.651 233.19 224.651 233.554C224.651 234.049 224.525 234.459 224.273 234.786C224.021 235.103 223.699 235.337 223.307 235.486C222.924 235.635 222.532 235.71 222.131 235.71ZM229.426 235.71C228.763 235.71 228.189 235.575 227.704 235.304C227.219 235.024 226.845 234.609 226.584 234.058C226.323 233.507 226.192 232.821 226.192 232C226.192 230.796 226.463 229.895 227.004 229.298C227.555 228.691 228.306 228.388 229.258 228.388C230.005 228.388 230.602 228.556 231.05 228.892C231.507 229.228 231.834 229.681 232.03 230.25C232.226 230.819 232.319 231.463 232.31 232.182H226.696L226.766 231.258H231.652L231.26 231.398C231.232 230.698 231.055 230.175 230.728 229.83C230.411 229.485 229.921 229.312 229.258 229.312C228.801 229.312 228.418 229.396 228.11 229.564C227.811 229.732 227.587 230.026 227.438 230.446C227.289 230.857 227.214 231.435 227.214 232.182C227.214 233.031 227.41 233.68 227.802 234.128C228.203 234.567 228.763 234.786 229.482 234.786C229.827 234.786 230.145 234.763 230.434 234.716C230.723 234.66 230.989 234.585 231.232 234.492C231.475 234.399 231.689 234.296 231.876 234.184V235.22C231.54 235.379 231.167 235.5 230.756 235.584C230.355 235.668 229.911 235.71 229.426 235.71ZM237.124 235.612C236.751 235.612 236.368 235.565 235.976 235.472C235.593 235.369 235.239 235.192 234.912 234.94C234.595 234.679 234.338 234.31 234.142 233.834C233.946 233.358 233.848 232.747 233.848 232C233.848 231.253 233.946 230.647 234.142 230.18C234.338 229.704 234.595 229.335 234.912 229.074C235.239 228.813 235.593 228.635 235.976 228.542C236.368 228.439 236.751 228.388 237.124 228.388C237.479 228.388 237.829 228.421 238.174 228.486C238.529 228.551 238.869 228.649 239.196 228.78V229.746C238.888 229.615 238.571 229.517 238.244 229.452C237.917 229.387 237.581 229.354 237.236 229.354C236.405 229.354 235.799 229.564 235.416 229.984C235.043 230.404 234.856 231.076 234.856 232C234.856 232.933 235.043 233.61 235.416 234.03C235.799 234.441 236.405 234.646 237.236 234.646C237.581 234.646 237.917 234.613 238.244 234.548C238.571 234.483 238.888 234.385 239.196 234.254V235.234C238.869 235.355 238.529 235.449 238.174 235.514C237.829 235.579 237.479 235.612 237.124 235.612ZM243.287 235.612C242.792 235.612 242.377 235.463 242.041 235.164C241.705 234.856 241.537 234.403 241.537 233.806V229.438H240.319V228.514H241.537V226.54H242.545V228.514H244.351V229.438H242.545V233.484C242.545 233.876 242.605 234.17 242.727 234.366C242.848 234.562 243.095 234.66 243.469 234.66C243.637 234.66 243.8 234.646 243.959 234.618C244.117 234.581 244.248 234.539 244.351 234.492V235.444C244.22 235.491 244.052 235.528 243.847 235.556C243.651 235.593 243.464 235.612 243.287 235.612ZM249.059 235.71C248.396 235.71 247.822 235.575 247.337 235.304C246.851 235.024 246.478 234.609 246.217 234.058C245.955 233.507 245.825 232.821 245.825 232C245.825 230.796 246.095 229.895 246.637 229.298C247.187 228.691 247.939 228.388 248.891 228.388C249.637 228.388 250.235 228.556 250.683 228.892C251.14 229.228 251.467 229.681 251.663 230.25C251.859 230.819 251.952 231.463 251.943 232.182H246.329L246.399 231.258H251.285L250.893 231.398C250.865 230.698 250.687 230.175 250.361 229.83C250.043 229.485 249.553 229.312 248.891 229.312C248.433 229.312 248.051 229.396 247.743 229.564C247.444 229.732 247.22 230.026 247.071 230.446C246.921 230.857 246.847 231.435 246.847 232.182C246.847 233.031 247.043 233.68 247.435 234.128C247.836 234.567 248.396 234.786 249.115 234.786C249.46 234.786 249.777 234.763 250.067 234.716C250.356 234.66 250.622 234.585 250.865 234.492C251.107 234.399 251.322 234.296 251.509 234.184V235.22C251.173 235.379 250.799 235.5 250.389 235.584C249.987 235.668 249.544 235.71 249.059 235.71ZM256.029 235.612C255.534 235.612 255.119 235.463 254.783 235.164C254.447 234.856 254.279 234.403 254.279 233.806V229.438H253.061V228.514H254.279V226.54H255.287V228.514H257.093V229.438H255.287V233.484C255.287 233.876 255.348 234.17 255.469 234.366C255.59 234.562 255.838 234.66 256.211 234.66C256.379 234.66 256.542 234.646 256.701 234.618C256.86 234.581 256.99 234.539 257.093 234.492V235.444C256.962 235.491 256.794 235.528 256.589 235.556C256.393 235.593 256.206 235.612 256.029 235.612ZM261.843 235.71C261.227 235.71 260.7 235.603 260.261 235.388C259.822 235.173 259.486 234.861 259.253 234.45C259.029 234.039 258.917 233.535 258.917 232.938V228.514H259.925V232.714C259.925 233.423 260.079 233.946 260.387 234.282C260.704 234.609 261.19 234.772 261.843 234.772C262.496 234.772 262.977 234.609 263.285 234.282C263.602 233.946 263.761 233.423 263.761 232.714V228.514H264.769V232.938C264.769 233.825 264.512 234.511 263.999 234.996C263.495 235.472 262.776 235.71 261.843 235.71ZM267.011 235.5V229.074C267.123 229.027 267.337 228.948 267.655 228.836C267.981 228.724 268.369 228.621 268.817 228.528C269.274 228.435 269.745 228.388 270.231 228.388C270.305 228.388 270.38 228.397 270.455 228.416C270.529 228.435 270.604 228.453 270.679 228.472V229.368C270.436 229.34 270.198 229.326 269.965 229.326C269.741 229.326 269.521 229.34 269.307 229.368C269.092 229.387 268.877 229.415 268.663 229.452C268.448 229.489 268.233 229.527 268.019 229.564V235.5H267.011ZM271.235 235.5V234.1H272.635V235.5H271.235ZM21.364 255.5L17.78 246.162H18.858L22.092 254.646H21.728L24.906 246.19L25.942 246.162L22.358 255.5H21.364ZM27.3987 255.5V248.514H28.4067V255.5H27.3987ZM27.3427 247.268V246.162H28.4627V247.268H27.3427ZM33.0299 255.5L30.0759 248.514H31.1539L33.7299 254.632L33.5059 254.688L36.0119 248.514H37.0199L34.0519 255.5H33.0299ZM41.0274 255.71C40.3648 255.71 39.7908 255.575 39.3054 255.304C38.8201 255.024 38.4468 254.609 38.1854 254.058C37.9241 253.507 37.7934 252.821 37.7934 252C37.7934 250.796 38.0641 249.895 38.6054 249.298C39.1561 248.691 39.9074 248.388 40.8594 248.388C41.6061 248.388 42.2034 248.556 42.6514 248.892C43.1088 249.228 43.4354 249.681 43.6314 250.25C43.8274 250.819 43.9208 251.463 43.9114 252.182H38.2974L38.3674 251.258H43.2534L42.8614 251.398C42.8334 250.698 42.6561 250.175 42.3294 249.83C42.0121 249.485 41.5221 249.312 40.8594 249.312C40.4021 249.312 40.0194 249.396 39.7114 249.564C39.4128 249.732 39.1888 250.026 39.0394 250.446C38.8901 250.857 38.8154 251.435 38.8154 252.182C38.8154 253.031 39.0114 253.68 39.4034 254.128C39.8048 254.567 40.3648 254.786 41.0834 254.786C41.4288 254.786 41.7461 254.763 42.0354 254.716C42.3248 254.66 42.5908 254.585 42.8334 254.492C43.0761 254.399 43.2908 254.296 43.4774 254.184V255.22C43.1414 255.379 42.7681 255.5 42.3574 255.584C41.9561 255.668 41.5128 255.71 41.0274 255.71ZM45.7997 255.5V249.074C45.9117 249.027 46.1264 248.948 46.4437 248.836C46.7704 248.724 47.1577 248.621 47.6057 248.528C48.063 248.435 48.5344 248.388 49.0197 248.388C49.0944 248.388 49.169 248.397 49.2437 248.416C49.3184 248.435 49.393 248.453 49.4677 248.472V249.368C49.225 249.34 48.987 249.326 48.7537 249.326C48.5297 249.326 48.3104 249.34 48.0957 249.368C47.881 249.387 47.6664 249.415 47.4517 249.452C47.237 249.489 47.0224 249.527 46.8077 249.564V255.5H45.7997ZM51.077 255.5V249.074C51.189 249.027 51.4037 248.948 51.721 248.836C52.0477 248.724 52.435 248.621 52.883 248.528C53.3404 248.435 53.8117 248.388 54.297 248.388C54.3717 248.388 54.4464 248.397 54.521 248.416C54.5957 248.435 54.6704 248.453 54.745 248.472V249.368C54.5024 249.34 54.2644 249.326 54.031 249.326C53.807 249.326 53.5877 249.34 53.373 249.368C53.1584 249.387 52.9437 249.415 52.729 249.452C52.5144 249.489 52.2997 249.527 52.085 249.564V255.5H51.077ZM58.7624 255.71C58.4544 255.71 58.1417 255.677 57.8244 255.612C57.5164 255.547 57.227 255.435 56.9564 255.276C56.695 255.117 56.4804 254.903 56.3124 254.632C56.1537 254.352 56.0744 254.002 56.0744 253.582C56.0744 253.003 56.1817 252.541 56.3964 252.196C56.6204 251.841 56.9237 251.589 57.3064 251.44C57.6984 251.281 58.1464 251.202 58.6504 251.202C59.033 251.202 59.3644 251.225 59.6444 251.272C59.9244 251.319 60.1717 251.389 60.3864 251.482C60.6104 251.566 60.811 251.664 60.9884 251.776L61.1844 252.7C60.9697 252.541 60.657 252.406 60.2464 252.294C59.845 252.173 59.4017 252.112 58.9164 252.112C58.3284 252.112 57.8757 252.224 57.5584 252.448C57.241 252.672 57.0824 252.999 57.0824 253.428C57.0824 253.773 57.1757 254.049 57.3624 254.254C57.5584 254.459 57.801 254.604 58.0904 254.688C58.389 254.772 58.6924 254.814 59.0004 254.814C59.607 254.814 60.0644 254.772 60.3724 254.688C60.6897 254.595 60.8484 254.389 60.8484 254.072V250.866C60.8484 250.325 60.6897 249.928 60.3724 249.676C60.055 249.424 59.6024 249.298 59.0144 249.298C58.641 249.298 58.2444 249.354 57.8244 249.466C57.4137 249.569 57.059 249.737 56.7604 249.97V248.962C57.0497 248.775 57.437 248.635 57.9224 248.542C58.4077 248.439 58.879 248.388 59.3364 248.388C59.6444 248.388 59.929 248.421 60.1904 248.486C60.4517 248.542 60.685 248.631 60.8904 248.752C61.0957 248.864 61.2684 249.013 61.4084 249.2C61.5577 249.377 61.6697 249.587 61.7444 249.83C61.8284 250.063 61.8704 250.329 61.8704 250.628V254.016C61.8704 254.511 61.721 254.879 61.4224 255.122C61.133 255.365 60.7504 255.523 60.2744 255.598C59.8077 255.673 59.3037 255.71 58.7624 255.71ZM70.1409 255.71C69.6369 255.71 69.2122 255.659 68.8669 255.556C68.5309 255.453 68.1809 255.309 67.8169 255.122V254.058C68.1062 254.217 68.3629 254.352 68.5869 254.464C68.8109 254.576 69.0395 254.66 69.2729 254.716C69.5062 254.763 69.7722 254.786 70.0709 254.786C70.5375 254.786 70.9155 254.683 71.2049 254.478C71.5035 254.273 71.6529 254.007 71.6529 253.68C71.6529 253.419 71.5782 253.218 71.4289 253.078C71.2889 252.938 71.1069 252.821 70.8829 252.728C70.6589 252.635 70.4255 252.537 70.1829 252.434C69.9122 252.359 69.6369 252.28 69.3569 252.196C69.0862 252.103 68.8342 251.986 68.6009 251.846C68.3769 251.697 68.1949 251.51 68.0549 251.286C67.9149 251.053 67.8449 250.754 67.8449 250.39C67.8449 250.035 67.9149 249.732 68.0549 249.48C68.2042 249.228 68.3955 249.023 68.6289 248.864C68.8622 248.696 69.1235 248.575 69.4129 248.5C69.7022 248.425 69.9915 248.388 70.2809 248.388C70.7009 248.388 71.0602 248.444 71.3589 248.556C71.6575 248.668 71.9655 248.794 72.2829 248.934V249.942C71.9282 249.755 71.6109 249.606 71.3309 249.494C71.0509 249.373 70.7195 249.312 70.3369 249.312C69.9542 249.312 69.6089 249.391 69.3009 249.55C69.0022 249.699 68.8529 249.933 68.8529 250.25C68.8529 250.511 68.9275 250.721 69.0769 250.88C69.2355 251.029 69.4409 251.151 69.6929 251.244C69.9449 251.328 70.2155 251.412 70.5049 251.496C70.7382 251.571 70.9809 251.655 71.2329 251.748C71.4849 251.832 71.7182 251.949 71.9329 252.098C72.1475 252.238 72.3202 252.425 72.4509 252.658C72.5909 252.891 72.6609 253.19 72.6609 253.554C72.6609 254.049 72.5349 254.459 72.2829 254.786C72.0309 255.103 71.7089 255.337 71.3169 255.486C70.9342 255.635 70.5422 255.71 70.1409 255.71ZM77.4356 255.71C76.773 255.71 76.199 255.575 75.7136 255.304C75.2283 255.024 74.855 254.609 74.5936 254.058C74.3323 253.507 74.2016 252.821 74.2016 252C74.2016 250.796 74.4723 249.895 75.0136 249.298C75.5643 248.691 76.3156 248.388 77.2676 248.388C78.0143 248.388 78.6116 248.556 79.0596 248.892C79.517 249.228 79.8436 249.681 80.0396 250.25C80.2356 250.819 80.329 251.463 80.3196 252.182H74.7056L74.7756 251.258H79.6616L79.2696 251.398C79.2416 250.698 79.0643 250.175 78.7376 249.83C78.4203 249.485 77.9303 249.312 77.2676 249.312C76.8103 249.312 76.4276 249.396 76.1196 249.564C75.821 249.732 75.597 250.026 75.4476 250.446C75.2983 250.857 75.2236 251.435 75.2236 252.182C75.2236 253.031 75.4196 253.68 75.8116 254.128C76.213 254.567 76.773 254.786 77.4916 254.786C77.837 254.786 78.1543 254.763 78.4436 254.716C78.733 254.66 78.999 254.585 79.2416 254.492C79.4843 254.399 79.699 254.296 79.8856 254.184V255.22C79.5496 255.379 79.1763 255.5 78.7656 255.584C78.3643 255.668 77.921 255.71 77.4356 255.71ZM85.1059 255.71C84.7699 255.71 84.4152 255.659 84.0419 255.556C83.6686 255.463 83.3139 255.285 82.9779 255.024C82.6512 254.753 82.3806 254.371 82.1659 253.876C81.9606 253.372 81.8579 252.719 81.8579 251.916C81.8579 250.833 82.1192 249.979 82.6419 249.354C83.1739 248.719 83.9766 248.402 85.0499 248.402C85.2552 248.402 85.4979 248.43 85.7779 248.486C86.0579 248.542 86.3332 248.612 86.6039 248.696C86.8746 248.78 87.0986 248.869 87.2759 248.962L86.9259 249.312V245.56H87.9339V254.296C87.9339 254.557 87.8406 254.781 87.6539 254.968C87.4766 255.145 87.2432 255.29 86.9539 255.402C86.6646 255.505 86.3566 255.579 86.0299 255.626C85.7032 255.682 85.3952 255.71 85.1059 255.71ZM85.1199 254.786C85.6052 254.786 86.0252 254.73 86.3799 254.618C86.7439 254.506 86.9259 254.366 86.9259 254.198V249.816C86.6366 249.648 86.3239 249.527 85.9879 249.452C85.6612 249.368 85.3486 249.326 85.0499 249.326C84.5459 249.326 84.1352 249.438 83.8179 249.662C83.5099 249.877 83.2812 250.18 83.1319 250.572C82.9919 250.955 82.9219 251.403 82.9219 251.916C82.9219 252.42 82.9779 252.891 83.0899 253.33C83.2019 253.759 83.4166 254.109 83.7339 254.38C84.0512 254.651 84.5132 254.786 85.1199 254.786ZM95.2471 255.5H94.2391V245.854H95.2471V255.5ZM99.901 255.71C99.593 255.71 99.2804 255.677 98.963 255.612C98.655 255.547 98.3657 255.435 98.095 255.276C97.8337 255.117 97.619 254.903 97.451 254.632C97.2924 254.352 97.213 254.002 97.213 253.582C97.213 253.003 97.3204 252.541 97.535 252.196C97.759 251.841 98.0624 251.589 98.445 251.44C98.837 251.281 99.285 251.202 99.789 251.202C100.172 251.202 100.503 251.225 100.783 251.272C101.063 251.319 101.31 251.389 101.525 251.482C101.749 251.566 101.95 251.664 102.127 251.776L102.323 252.7C102.108 252.541 101.796 252.406 101.385 252.294C100.984 252.173 100.54 252.112 100.055 252.112C99.467 252.112 99.0144 252.224 98.697 252.448C98.3797 252.672 98.221 252.999 98.221 253.428C98.221 253.773 98.3144 254.049 98.501 254.254C98.697 254.459 98.9397 254.604 99.229 254.688C99.5277 254.772 99.831 254.814 100.139 254.814C100.746 254.814 101.203 254.772 101.511 254.688C101.828 254.595 101.987 254.389 101.987 254.072V250.866C101.987 250.325 101.828 249.928 101.511 249.676C101.194 249.424 100.741 249.298 100.153 249.298C99.7797 249.298 99.383 249.354 98.963 249.466C98.5524 249.569 98.1977 249.737 97.899 249.97V248.962C98.1884 248.775 98.5757 248.635 99.061 248.542C99.5464 248.439 100.018 248.388 100.475 248.388C100.783 248.388 101.068 248.421 101.329 248.486C101.59 248.542 101.824 248.631 102.029 248.752C102.234 248.864 102.407 249.013 102.547 249.2C102.696 249.377 102.808 249.587 102.883 249.83C102.967 250.063 103.009 250.329 103.009 250.628V254.016C103.009 254.511 102.86 254.879 102.561 255.122C102.272 255.365 101.889 255.523 101.413 255.598C100.946 255.673 100.442 255.71 99.901 255.71ZM108.115 255.71C107.023 255.71 106.211 255.388 105.679 254.744C105.156 254.091 104.895 253.185 104.895 252.028C104.895 250.815 105.17 249.905 105.721 249.298C106.281 248.691 107.07 248.388 108.087 248.388C108.843 248.388 109.459 248.542 109.935 248.85C110.411 249.149 110.761 249.573 110.985 250.124C111.209 250.665 111.321 251.3 111.321 252.028C111.321 253.176 111.041 254.077 110.481 254.73C109.93 255.383 109.142 255.71 108.115 255.71ZM108.101 254.786C108.67 254.786 109.114 254.665 109.431 254.422C109.748 254.17 109.972 253.839 110.103 253.428C110.243 253.008 110.313 252.541 110.313 252.028C110.313 251.477 110.243 251.001 110.103 250.6C109.963 250.189 109.73 249.872 109.403 249.648C109.086 249.424 108.652 249.312 108.101 249.312C107.541 249.312 107.102 249.433 106.785 249.676C106.468 249.919 106.239 250.245 106.099 250.656C105.968 251.057 105.903 251.515 105.903 252.028C105.903 252.849 106.066 253.517 106.393 254.03C106.72 254.534 107.289 254.786 108.101 254.786ZM113.216 255.5V249.074C113.328 249.027 113.542 248.948 113.86 248.836C114.186 248.724 114.574 248.621 115.022 248.528C115.479 248.435 115.95 248.388 116.436 248.388C116.51 248.388 116.585 248.397 116.66 248.416C116.734 248.435 116.809 248.453 116.884 248.472V249.368C116.641 249.34 116.403 249.326 116.17 249.326C115.946 249.326 115.726 249.34 115.512 249.368C115.297 249.387 115.082 249.415 114.868 249.452C114.653 249.489 114.438 249.527 114.224 249.564V255.5H113.216ZM120.885 255.71C120.222 255.71 119.648 255.575 119.163 255.304C118.678 255.024 118.304 254.609 118.043 254.058C117.782 253.507 117.651 252.821 117.651 252C117.651 250.796 117.922 249.895 118.463 249.298C119.014 248.691 119.765 248.388 120.717 248.388C121.464 248.388 122.061 248.556 122.509 248.892C122.966 249.228 123.293 249.681 123.489 250.25C123.685 250.819 123.778 251.463 123.769 252.182H118.155L118.225 251.258H123.111L122.719 251.398C122.691 250.698 122.514 250.175 122.187 249.83C121.87 249.485 121.38 249.312 120.717 249.312C120.26 249.312 119.877 249.396 119.569 249.564C119.27 249.732 119.046 250.026 118.897 250.446C118.748 250.857 118.673 251.435 118.673 252.182C118.673 253.031 118.869 253.68 119.261 254.128C119.662 254.567 120.222 254.786 120.941 254.786C121.286 254.786 121.604 254.763 121.893 254.716C122.182 254.66 122.448 254.585 122.691 254.492C122.934 254.399 123.148 254.296 123.335 254.184V255.22C122.999 255.379 122.626 255.5 122.215 255.584C121.814 255.668 121.37 255.71 120.885 255.71ZM128.541 255.71C127.878 255.71 127.304 255.575 126.819 255.304C126.334 255.024 125.96 254.609 125.699 254.058C125.438 253.507 125.307 252.821 125.307 252C125.307 250.796 125.578 249.895 126.119 249.298C126.67 248.691 127.421 248.388 128.373 248.388C129.12 248.388 129.717 248.556 130.165 248.892C130.622 249.228 130.949 249.681 131.145 250.25C131.341 250.819 131.434 251.463 131.425 252.182H125.811L125.881 251.258H130.767L130.375 251.398C130.347 250.698 130.17 250.175 129.843 249.83C129.526 249.485 129.036 249.312 128.373 249.312C127.916 249.312 127.533 249.396 127.225 249.564C126.926 249.732 126.702 250.026 126.553 250.446C126.404 250.857 126.329 251.435 126.329 252.182C126.329 253.031 126.525 253.68 126.917 254.128C127.318 254.567 127.878 254.786 128.597 254.786C128.942 254.786 129.26 254.763 129.549 254.716C129.838 254.66 130.104 254.585 130.347 254.492C130.59 254.399 130.804 254.296 130.991 254.184V255.22C130.655 255.379 130.282 255.5 129.871 255.584C129.47 255.668 129.026 255.71 128.541 255.71ZM135.511 255.612C135.017 255.612 134.601 255.463 134.265 255.164C133.929 254.856 133.761 254.403 133.761 253.806V249.438H132.543V248.514H133.761V246.54H134.769V248.514H136.575V249.438H134.769V253.484C134.769 253.876 134.83 254.17 134.951 254.366C135.073 254.562 135.32 254.66 135.693 254.66C135.861 254.66 136.025 254.646 136.183 254.618C136.342 254.581 136.473 254.539 136.575 254.492V255.444C136.445 255.491 136.277 255.528 136.071 255.556C135.875 255.593 135.689 255.612 135.511 255.612ZM145.344 255.71C144.681 255.71 144.107 255.575 143.622 255.304C143.137 255.024 142.763 254.609 142.502 254.058C142.241 253.507 142.11 252.821 142.11 252C142.11 250.796 142.381 249.895 142.922 249.298C143.473 248.691 144.224 248.388 145.176 248.388C145.923 248.388 146.52 248.556 146.968 248.892C147.425 249.228 147.752 249.681 147.948 250.25C148.144 250.819 148.237 251.463 148.228 252.182H142.614L142.684 251.258H147.57L147.178 251.398C147.15 250.698 146.973 250.175 146.646 249.83C146.329 249.485 145.839 249.312 145.176 249.312C144.719 249.312 144.336 249.396 144.028 249.564C143.729 249.732 143.505 250.026 143.356 250.446C143.207 250.857 143.132 251.435 143.132 252.182C143.132 253.031 143.328 253.68 143.72 254.128C144.121 254.567 144.681 254.786 145.4 254.786C145.745 254.786 146.063 254.763 146.352 254.716C146.641 254.66 146.907 254.585 147.15 254.492C147.393 254.399 147.607 254.296 147.794 254.184V255.22C147.458 255.379 147.085 255.5 146.674 255.584C146.273 255.668 145.829 255.71 145.344 255.71ZM153.042 255.71C152.426 255.71 151.899 255.603 151.46 255.388C151.021 255.173 150.685 254.861 150.452 254.45C150.228 254.039 150.116 253.535 150.116 252.938V248.514H151.124V252.714C151.124 253.423 151.278 253.946 151.586 254.282C151.903 254.609 152.389 254.772 153.042 254.772C153.695 254.772 154.176 254.609 154.484 254.282C154.801 253.946 154.96 253.423 154.96 252.714V248.514H155.968V252.938C155.968 253.825 155.711 254.511 155.198 254.996C154.694 255.472 153.975 255.71 153.042 255.71ZM165.14 255.71C164.048 255.71 163.236 255.388 162.704 254.744C162.182 254.091 161.92 253.185 161.92 252.028C161.92 250.815 162.196 249.905 162.746 249.298C163.306 248.691 164.095 248.388 165.112 248.388C165.868 248.388 166.484 248.542 166.96 248.85C167.436 249.149 167.786 249.573 168.01 250.124C168.234 250.665 168.346 251.3 168.346 252.028C168.346 253.176 168.066 254.077 167.506 254.73C166.956 255.383 166.167 255.71 165.14 255.71ZM165.126 254.786C165.696 254.786 166.139 254.665 166.456 254.422C166.774 254.17 166.998 253.839 167.128 253.428C167.268 253.008 167.338 252.541 167.338 252.028C167.338 251.477 167.268 251.001 167.128 250.6C166.988 250.189 166.755 249.872 166.428 249.648C166.111 249.424 165.677 249.312 165.126 249.312C164.566 249.312 164.128 249.433 163.81 249.676C163.493 249.919 163.264 250.245 163.124 250.656C162.994 251.057 162.928 251.515 162.928 252.028C162.928 252.849 163.092 253.517 163.418 254.03C163.745 254.534 164.314 254.786 165.126 254.786ZM170.241 255.5V249.074C170.353 249.027 170.568 248.948 170.885 248.836C171.212 248.724 171.599 248.621 172.047 248.528C172.504 248.435 172.976 248.388 173.461 248.388C173.536 248.388 173.61 248.397 173.685 248.416C173.76 248.435 173.834 248.453 173.909 248.472V249.368C173.666 249.34 173.428 249.326 173.195 249.326C172.971 249.326 172.752 249.34 172.537 249.368C172.322 249.387 172.108 249.415 171.893 249.452C171.678 249.489 171.464 249.527 171.249 249.564V255.5H170.241ZM175.518 249.074C175.742 248.962 175.971 248.864 176.204 248.78C176.447 248.687 176.69 248.612 176.932 248.556C177.184 248.5 177.436 248.458 177.688 248.43C177.95 248.402 178.211 248.388 178.472 248.388C179.154 248.388 179.695 248.491 180.096 248.696C180.498 248.892 180.787 249.181 180.964 249.564C181.151 249.947 181.244 250.409 181.244 250.95V255.5H180.236V250.95C180.236 250.782 180.213 250.605 180.166 250.418C180.129 250.231 180.05 250.054 179.928 249.886C179.807 249.709 179.62 249.569 179.368 249.466C179.116 249.354 178.78 249.298 178.36 249.298C178.071 249.298 177.772 249.321 177.464 249.368C177.156 249.415 176.844 249.485 176.526 249.578V255.5H175.518V249.074ZM185.897 255.71C185.589 255.71 185.276 255.677 184.959 255.612C184.651 255.547 184.362 255.435 184.091 255.276C183.83 255.117 183.615 254.903 183.447 254.632C183.288 254.352 183.209 254.002 183.209 253.582C183.209 253.003 183.316 252.541 183.531 252.196C183.755 251.841 184.058 251.589 184.441 251.44C184.833 251.281 185.281 251.202 185.785 251.202C186.168 251.202 186.499 251.225 186.779 251.272C187.059 251.319 187.306 251.389 187.521 251.482C187.745 251.566 187.946 251.664 188.123 251.776L188.319 252.7C188.104 252.541 187.792 252.406 187.381 252.294C186.98 252.173 186.536 252.112 186.051 252.112C185.463 252.112 185.01 252.224 184.693 252.448C184.376 252.672 184.217 252.999 184.217 253.428C184.217 253.773 184.31 254.049 184.497 254.254C184.693 254.459 184.936 254.604 185.225 254.688C185.524 254.772 185.827 254.814 186.135 254.814C186.742 254.814 187.199 254.772 187.507 254.688C187.824 254.595 187.983 254.389 187.983 254.072V250.866C187.983 250.325 187.824 249.928 187.507 249.676C187.19 249.424 186.737 249.298 186.149 249.298C185.776 249.298 185.379 249.354 184.959 249.466C184.548 249.569 184.194 249.737 183.895 249.97V248.962C184.184 248.775 184.572 248.635 185.057 248.542C185.542 248.439 186.014 248.388 186.471 248.388C186.779 248.388 187.064 248.421 187.325 248.486C187.586 248.542 187.82 248.631 188.025 248.752C188.23 248.864 188.403 249.013 188.543 249.2C188.692 249.377 188.804 249.587 188.879 249.83C188.963 250.063 189.005 250.329 189.005 250.628V254.016C189.005 254.511 188.856 254.879 188.557 255.122C188.268 255.365 187.885 255.523 187.409 255.598C186.942 255.673 186.438 255.71 185.897 255.71ZM191.241 255.5V249.074C191.353 249.027 191.568 248.948 191.885 248.836C192.212 248.724 192.599 248.621 193.047 248.528C193.504 248.435 193.976 248.388 194.461 248.388C194.536 248.388 194.61 248.397 194.685 248.416C194.76 248.435 194.834 248.453 194.909 248.472V249.368C194.666 249.34 194.428 249.326 194.195 249.326C193.971 249.326 193.752 249.34 193.537 249.368C193.322 249.387 193.108 249.415 192.893 249.452C192.678 249.489 192.464 249.527 192.249 249.564V255.5H191.241ZM198.91 255.71C198.248 255.71 197.674 255.575 197.188 255.304C196.703 255.024 196.33 254.609 196.068 254.058C195.807 253.507 195.676 252.821 195.676 252C195.676 250.796 195.947 249.895 196.488 249.298C197.039 248.691 197.79 248.388 198.742 248.388C199.489 248.388 200.086 248.556 200.534 248.892C200.992 249.228 201.318 249.681 201.514 250.25C201.71 250.819 201.804 251.463 201.794 252.182H196.18L196.25 251.258H201.136L200.744 251.398C200.716 250.698 200.539 250.175 200.212 249.83C199.895 249.485 199.405 249.312 198.742 249.312C198.285 249.312 197.902 249.396 197.594 249.564C197.296 249.732 197.072 250.026 196.922 250.446C196.773 250.857 196.698 251.435 196.698 252.182C196.698 253.031 196.894 253.68 197.286 254.128C197.688 254.567 198.248 254.786 198.966 254.786C199.312 254.786 199.629 254.763 199.918 254.716C200.208 254.66 200.474 254.585 200.716 254.492C200.959 254.399 201.174 254.296 201.36 254.184V255.22C201.024 255.379 200.651 255.5 200.24 255.584C199.839 255.668 199.396 255.71 198.91 255.71ZM203.683 255.5V254.1H205.083V255.5H203.683Z" fill="#C0C4CE"/>
</svg>
